<svg xmlns="http://www.w3.org/2000/svg" version="1.1" xmlns:xlink="http://www.w3.org/1999/xlink" xmlns:svgjs="http://svgjs.dev/svgjs" width="293" height="213"><svg width="293" height="213" viewBox="0 0 293 213" fill="none" xmlns="http://www.w3.org/2000/svg">
<path fill-rule="evenodd" clip-rule="evenodd" d="M112.177 133.682C104.377 150.868 116.941 170.368 135.814 170.368H197.443C207.481 170.368 216.586 164.477 220.699 155.32C229.731 135.211 210.712 113.892 189.707 120.581L135.387 137.878C130.028 139.585 125.183 134.13 127.511 129.01L138.246 105.391C140.574 100.27 145.482 96.8027 151.086 96.3193L276.446 85.506C288.604 84.4572 296.86 97.5923 290.642 108.093L257.281 164.436C239.757 194.032 207.916 212.182 173.522 212.182H97.3199C70.4018 212.182 52.1854 184.747 62.6312 159.938L93.7815 85.9562C96.8908 78.5717 90.6753 70.6455 82.7624 71.9044L24.2051 81.2204C15.6515 82.5811 6.9894 79.5288 1.17852 73.1062C-0.741317 70.9843 -0.253868 67.6388 2.19164 66.1529L42.9072 41.4144C48.655 37.922 53.7564 33.4631 57.9865 28.2343L70.0383 13.3369C85.3264 -5.56087 114.574 -4.14943 127.971 16.1326C141.826 37.1067 143.929 63.7289 133.539 86.6181L112.177 133.682ZM81.0513 24.4908C83.6995 24.4908 85.8463 22.344 85.8463 19.6958C85.8463 17.0476 83.6995 14.9008 81.0513 14.9008C78.4031 14.9008 76.2563 17.0476 76.2563 19.6958C76.2563 22.344 78.4031 24.4908 81.0513 24.4908Z" fill="#0E3A2D"></path>
</svg><style>@media (prefers-color-scheme: light) { :root { filter: none; } }
@media (prefers-color-scheme: dark) { :root { filter: none; } }
</style></svg>