<svg width="393" height="380" viewBox="0 0 393 380" fill="none" xmlns="http://www.w3.org/2000/svg">
<path fill-rule="evenodd" clip-rule="evenodd" d="M161.177 133.682C153.377 150.868 165.941 170.368 184.814 170.368H246.443C256.481 170.368 265.586 164.477 269.699 155.32C278.731 135.211 259.712 113.892 238.707 120.581L184.387 137.878C179.028 139.585 174.183 134.13 176.511 129.01L187.246 105.391C189.574 100.27 194.482 96.8027 200.086 96.3193L325.446 85.506C337.604 84.4572 345.86 97.5923 339.642 108.093L306.281 164.436C288.757 194.032 256.916 212.182 222.522 212.182H146.32C119.402 212.182 101.185 184.747 111.631 159.938L142.782 85.9562C145.891 78.5717 139.675 70.6455 131.762 71.9044L73.2051 81.2204C64.6515 82.5811 55.9894 79.5288 50.1785 73.1062C48.2587 70.9843 48.7461 67.6388 51.1916 66.1529L91.9072 41.4144C97.655 37.922 102.756 33.4631 106.986 28.2343L119.038 13.3369C134.326 -5.56087 163.574 -4.14943 176.971 16.1326C190.826 37.1067 192.929 63.7289 182.539 86.6181L161.177 133.682ZM130.051 24.4908C132.7 24.4908 134.846 22.344 134.846 19.6958C134.846 17.0476 132.7 14.9008 130.051 14.9008C127.403 14.9008 125.256 17.0476 125.256 19.6958C125.256 22.344 127.403 24.4908 130.051 24.4908Z" fill="#B6D73E"/>
<path d="M30.9938 287.035C30.3943 290.803 30.4371 294.4 31.1223 297.826C31.8075 301.252 33.0065 304.293 34.7195 306.948C36.5181 309.603 38.8734 311.701 41.7855 313.243C44.6975 314.785 48.0806 315.556 51.9348 315.556C55.789 315.556 59.3862 314.913 62.7265 313.628C66.0668 312.344 69.0645 310.502 71.7196 308.104C74.3746 305.706 76.6015 302.922 78.4001 299.753C80.1987 296.584 81.4406 293.159 82.1258 289.476C82.6397 285.878 82.6397 282.367 82.1258 278.941C81.6119 275.429 80.4985 272.26 78.7855 269.434C77.0726 266.522 74.7601 264.252 71.848 262.625C68.936 260.912 65.3816 260.013 61.1848 259.927C57.3306 259.927 53.6906 260.612 50.2647 261.983C46.9244 263.353 43.9267 265.323 41.2716 267.892C38.6165 270.376 36.3896 273.245 34.591 276.5C32.7924 279.755 31.5933 283.266 30.9938 287.035ZM8.38266 287.035C9.41044 280.354 11.5516 274.187 14.8063 268.535C18.0609 262.796 22.172 257.786 27.1396 253.503C32.1072 249.221 37.6744 245.924 43.841 243.611C50.0077 241.213 56.517 240.014 63.3688 240.014C70.1351 240.014 76.1304 241.256 81.355 243.739C86.6652 246.223 91.0761 249.606 94.5876 253.889C98.0992 258.171 100.54 263.182 101.911 268.92C103.367 274.573 103.666 280.611 102.81 287.035C101.782 293.715 99.6837 299.968 96.5147 305.792C93.3457 311.53 89.3631 316.583 84.5668 320.951C79.7705 325.319 74.289 328.745 68.1223 331.229C61.9556 333.627 55.4036 334.826 48.466 334.826C41.6142 334.826 35.4903 333.542 30.0945 330.972C24.6987 328.403 20.2021 324.934 16.6049 320.566C13.0933 316.198 10.6095 311.145 9.1535 305.406C7.78313 299.582 7.52618 293.458 8.38266 287.035ZM48.0806 293.458H69.1501L104.48 333.542H82.5112L48.0806 293.458ZM135.299 308.875C135.128 310.674 135.128 312.387 135.299 314.014C135.471 315.641 136.027 317.012 136.969 318.125C137.912 319.153 139.368 319.667 141.338 319.667C143.479 319.667 145.363 319.238 146.99 318.382C148.618 317.525 149.988 316.326 151.101 314.785C152.215 313.243 152.943 311.402 153.285 309.26L159.709 272.903H178.851L168.702 332H149.431L150.844 323.649C148.789 326.561 146.262 328.917 143.265 330.715C140.267 332.428 136.713 333.285 132.601 333.285C127.891 333.285 124.122 332.343 121.296 330.458C118.555 328.488 116.714 325.833 115.772 322.493C114.829 319.067 114.658 315.213 115.258 310.931L121.81 272.903H141.723L135.299 308.875ZM236.746 272.903H255.889L245.739 332H226.725L236.746 272.903ZM184.715 302.323C185.486 296.499 187.413 291.274 190.496 286.649C193.58 281.939 197.391 278.256 201.93 275.601C206.555 272.946 211.523 271.618 216.833 271.618C220.773 271.618 224.113 272.474 226.854 274.187C229.68 275.815 231.907 278.084 233.535 280.996C235.247 283.909 236.361 287.206 236.875 290.889C237.474 294.572 237.517 298.426 237.003 302.451C236.489 306.648 235.376 310.631 233.663 314.399C232.036 318.082 229.937 321.337 227.368 324.163C224.798 326.99 221.801 329.216 218.375 330.844C215.035 332.385 211.394 333.156 207.455 333.156C202.23 333.156 197.776 331.786 194.094 329.045C190.496 326.219 187.841 322.493 186.128 317.868C184.501 313.157 184.03 307.976 184.715 302.323ZM204.757 302.451C204.414 305.021 204.543 307.462 205.142 309.774C205.827 312.087 207.026 313.971 208.739 315.427C210.538 316.797 212.722 317.483 215.291 317.483C217.176 317.568 219.017 317.226 220.816 316.455C222.614 315.684 224.242 314.613 225.698 313.243C227.239 311.787 228.524 310.117 229.552 308.233C230.58 306.348 231.265 304.378 231.607 302.323C231.864 300.353 231.822 298.512 231.479 296.799C231.136 295 230.494 293.415 229.552 292.045C228.695 290.589 227.582 289.476 226.212 288.705C224.927 287.848 223.385 287.377 221.587 287.292C218.932 287.206 216.362 287.848 213.878 289.219C211.48 290.589 209.467 292.473 207.84 294.871C206.213 297.184 205.185 299.711 204.757 302.451ZM281.154 302.451C280.725 305.278 280.939 307.847 281.796 310.16C282.738 312.472 284.194 314.314 286.164 315.684C288.22 316.969 290.661 317.654 293.487 317.74C297.084 317.825 300.51 317.012 303.765 315.299C307.019 313.586 309.76 311.53 311.987 309.132L309.546 327.889C307.062 329.516 304.279 330.844 301.195 331.872C298.112 332.814 294.558 333.285 290.532 333.285C284.451 333.285 279.055 331.957 274.345 329.302C269.634 326.561 266.122 322.878 263.81 318.253C261.497 313.628 260.727 308.318 261.497 302.323C262.354 296.242 264.538 290.932 268.049 286.392C271.561 281.767 276.015 278.17 281.411 275.601C286.806 272.946 292.673 271.618 299.011 271.618C302.865 271.618 306.249 272.089 309.161 273.031C312.158 273.973 314.813 275.215 317.126 276.757L314.556 295.771C312.929 293.03 310.745 290.889 308.004 289.347C305.349 287.805 302.437 287.035 299.268 287.035C296.185 287.035 293.358 287.763 290.789 289.219C288.22 290.589 286.078 292.431 284.365 294.743C282.652 296.97 281.582 299.539 281.154 302.451ZM337.76 231.792H356.26L339.044 332H320.673L337.76 231.792ZM369.364 272.903H393.003L363.454 297.955L384.524 332H362.812L341.229 296.799L369.364 272.903Z" fill="#B6D73E"/>
</svg>
